<?xml version="1.0" standalone="no"?>
<!DOCTYPE svg PUBLIC "-//W3C//DTD SVG 20010904//EN"
 "http://www.w3.org/TR/2001/REC-SVG-20010904/DTD/svg10.dtd">
<svg version="1.0" xmlns="http://www.w3.org/2000/svg"
 width="1280.000000pt" height="1276.000000pt" viewBox="0 0 1280.000000 1276.000000"
 preserveAspectRatio="xMidYMid meet">
<g transform="translate(0.000000,1276.000000) scale(0.100000,-0.100000)"
fill="#000000" stroke="none">
<path d="M6080 12748 c-52 -5 -131 -12 -175 -16 l-79 -7 -231 -765 -231 -765
-115 -27 c-259 -63 -526 -146 -759 -237 -58 -22 -108 -41 -112 -41 -4 0 -298
219 -654 487 l-648 487 -60 -34 c-89 -49 -324 -200 -456 -292 -134 -94 -404
-305 -443 -346 l-27 -29 270 -744 c210 -577 269 -748 262 -764 -5 -11 -45 -60
-89 -110 -120 -137 -271 -335 -377 -495 -159 -242 -140 -220 -188 -220 -24 0
-389 9 -811 21 -506 14 -772 18 -779 11 -21 -21 -134 -309 -208 -532 -103
-308 -167 -550 -148 -561 7 -4 308 -205 668 -446 l655 -439 0 -349 c1 -193 5
-408 9 -480 l8 -130 -672 -450 c-369 -247 -674 -453 -676 -456 -5 -8 68 -286
121 -459 68 -219 148 -438 221 -598 27 -59 37 -72 56 -72 13 0 248 7 523 15
275 8 628 17 785 21 l285 6 36 -43 c20 -24 62 -84 94 -134 107 -167 254 -364
387 -519 37 -43 68 -87 68 -96 0 -10 -122 -352 -270 -760 -220 -602 -269 -745
-259 -757 22 -25 220 -188 349 -284 196 -147 592 -409 619 -409 5 0 294 214
642 476 348 262 638 478 645 481 14 5 62 -10 201 -66 152 -60 409 -144 573
-185 80 -21 154 -41 165 -45 17 -7 56 -128 229 -702 115 -382 220 -728 233
-770 l23 -76 147 -12 c82 -7 195 -17 252 -22 200 -17 434 -12 766 19 l69 7
231 765 231 765 115 27 c259 63 523 145 761 238 61 23 113 38 120 34 7 -4 301
-224 653 -488 l639 -479 61 33 c88 49 323 200 455 292 134 94 404 305 443 346
l27 29 -270 744 c-210 577 -269 748 -262 764 5 11 45 61 89 110 152 173 338
423 457 617 26 42 54 82 61 88 12 10 197 7 821 -10 527 -14 809 -19 816 -12
21 21 134 310 208 532 103 308 167 550 148 561 -7 4 -308 205 -668 446 l-655
439 0 349 c-1 193 -5 409 -9 480 l-8 130 676 453 c521 349 676 457 672 470 -3
9 -21 80 -41 157 -35 134 -127 445 -145 489 -5 11 -29 75 -54 141 -55 149
-120 303 -133 316 -6 6 -301 1 -812 -13 l-803 -22 -30 34 c-16 19 -59 80 -95
135 -124 189 -263 375 -395 529 -37 43 -68 87 -68 96 0 10 122 352 270 760
220 602 269 745 259 757 -22 25 -220 188 -349 284 -196 147 -592 409 -619 409
-5 0 -294 -214 -642 -476 -348 -262 -638 -478 -645 -481 -14 -5 -62 10 -179
57 -205 82 -419 151 -650 210 -65 16 -122 33 -126 38 -4 4 -104 331 -223 727
-119 396 -224 741 -232 766 l-15 46 -147 12 c-81 7 -194 17 -251 22 -125 11
-449 10 -581 -3z m2143 -2906 c76 -38 129 -92 166 -171 22 -47 26 -70 26 -141
0 -73 -4 -93 -28 -142 -32 -65 -104 -135 -174 -168 -72 -35 -199 -39 -275 -10
-76 28 -159 104 -195 178 -24 49 -28 69 -28 147 0 79 3 97 28 145 46 89 98
136 196 177 83 35 194 29 284 -15z m-1503 -1437 c459 -71 852 -263 1176 -578
293 -283 476 -601 578 -1002 45 -176 73 -485 56 -622 -60 -501 -271 -930 -623
-1269 -544 -524 -1302 -721 -2051 -533 -363 91 -681 269 -952 532 -293 283
-476 601 -578 1002 -45 176 -73 485 -56 622 60 501 271 930 623 1269 169 163
322 271 533 377 187 94 423 170 604 197 41 6 104 15 140 20 94 13 427 4 550
-15z m-3432 -120 c75 -34 143 -102 180 -183 37 -80 37 -184 1 -262 -64 -138
-180 -210 -337 -211 -67 0 -83 4 -148 36 -79 39 -128 87 -166 164 -19 39 -23
62 -23 146 0 85 3 106 23 143 93 175 293 246 470 167z m6543 -3196 c67 -36
116 -87 151 -158 19 -39 23 -62 23 -146 0 -92 -2 -104 -29 -153 -38 -67 -102
-127 -174 -160 -47 -22 -72 -26 -142 -27 -73 0 -94 4 -147 29 -76 35 -144 104
-181 184 -21 45 -26 72 -27 132 0 66 5 85 33 142 55 111 155 183 276 197 84 9
145 -2 217 -40z m-4966 -1540 c73 -27 156 -104 192 -177 24 -50 28 -69 28
-147 0 -80 -3 -97 -29 -148 -36 -70 -98 -130 -174 -165 -49 -23 -70 -27 -147
-27 -76 0 -99 4 -146 26 -161 76 -244 254 -193 415 31 100 124 194 223 227 68
23 179 21 246 -4z"/>
</g>
</svg>
